# Blender v2.83.3 OBJ File: '2020-11-13 Background.blend'
# www.blender.org
mtllib Background Row3.mtl
o Row_2_Cube.005
v 511.885864 434.922150 -4369.751465
v 498.619904 717.963745 -4476.118652
v -914.736450 375.631775 -4385.156738
v -925.697266 477.851227 -4465.360352
v 374.350952 391.995819 -4357.906250
v 280.229706 444.724030 -4444.296387
v 190.299606 377.644104 -4461.580078
v 64.710243 308.629791 -4407.563965
v -132.713638 385.679626 -4380.011719
v -450.058258 335.811707 -4340.697754
v -630.503540 389.076477 -4379.726562
v -792.777405 395.113251 -4347.550781
v -841.656921 602.246338 -4469.542480
v -629.834045 739.797424 -4488.270020
v -368.925537 525.190613 -4463.146484
v -86.746658 593.211670 -4450.250977
v 96.674675 515.747131 -4449.587891
v 204.166672 587.270935 -4490.020020
v 310.149628 716.758362 -4477.753418
v 411.335541 710.327332 -4480.358887
v -799.625183 -0.025927 -4341.580078
v -952.816284 -0.025927 -4331.062500
v 287.874573 -0.025927 -4352.023438
v -182.799698 -0.025927 -4284.376465
v 500.531769 -0.025927 -4240.911621
v 318.967773 -0.025927 -4257.423340
v 202.951508 -0.025927 -4378.652832
v 69.242119 -0.025927 -4317.491211
v -410.346313 -0.025927 -4320.609863
v -605.084839 -0.025927 -4369.586914
v 589.730225 485.845581 -4367.593750
v 573.091736 653.158203 -4455.864258
v 666.094360 -0.025927 -4248.770996
v 815.185791 348.916382 -4377.729492
v 739.882507 429.852325 -4438.907715
v 803.044678 355.738098 -4496.049316
v 841.719421 -0.025927 -4299.160645
v -924.093567 375.916199 -4463.871582
v 288.335663 -0.025927 -4517.923340
v -190.388916 -0.025927 -4468.813965
v -823.609497 -0.025927 -4504.104980
v -415.267731 -0.025927 -4495.592285
v 174.422531 0.648183 -4522.587891
v 521.972229 -0.025927 -4477.407715
v -938.819214 -0.025927 -4496.372559
v -618.494324 -0.025927 -4511.665527
v 16.394520 -0.025927 -4481.672852
v 366.681580 -0.025927 -4506.709473
v 660.297668 -0.025927 -4441.780762
v 815.209778 355.245270 -4444.021484
v 813.688110 -0.025927 -4452.567871
v -522.629211 401.730133 -4358.514648
v -377.699524 604.277222 -4471.743164
v -487.036041 -0.025927 -4339.897461
v -495.300110 -0.025927 -4501.922363
v -442.731018 675.582214 -4393.079102
v -526.999084 723.810791 -4413.446777
v -421.077454 802.006409 -4485.263672
v -276.767395 717.026489 -4473.922363
v 498.619904 717.963745 -4617.674316
v 498.470642 511.819550 -4665.817871
v -925.697266 477.851227 -4606.915527
v -923.384094 370.808197 -4685.524414
v 325.041168 421.811676 -4685.220703
v 281.418243 349.676514 -4688.500977
v 104.022705 305.343811 -4698.684082
v 17.241280 390.685760 -4673.713379
v -173.153336 352.966553 -4670.927734
v -433.539642 340.833832 -4709.583008
v -680.595215 410.803436 -4708.104004
v -812.186584 375.015747 -4745.426758
v -841.656921 602.246338 -4611.098145
v -629.834045 739.797424 -4629.825195
v -368.925537 525.190613 -4604.701660
v -86.746658 593.211670 -4591.806641
v 96.674675 515.747131 -4591.143555
v 204.166672 587.270935 -4631.575195
v 310.149628 716.758362 -4619.308594
v 411.335541 710.327332 -4621.914551
v -847.593628 -0.025927 -4808.185059
v -924.822144 -0.025927 -4803.238281
v 265.291687 -0.025927 -4797.140625
v -197.978195 -0.025927 -4794.807129
v 498.800110 -0.025927 -4774.227539
v 334.273621 -0.025927 -4787.759277
v 137.432495 -0.025927 -4796.613281
v -36.453049 -0.025927 -4787.409668
v -420.189301 -0.025927 -4812.130371
v -631.903809 -0.025927 -4795.299316
v 573.091736 653.158203 -4597.419434
v 605.838135 587.102966 -4657.787598
v 652.197693 -0.025927 -4753.589355
v 739.882507 429.852325 -4580.462891
v 803.044678 355.738098 -4637.604492
v 785.257263 -0.025927 -4755.357910
v -924.093567 375.916199 -4605.426758
v 288.335663 -0.025927 -4659.479004
v -190.388916 -0.025927 -4610.369141
v -823.609497 -0.025927 -4645.660156
v -415.267731 -0.025927 -4637.147949
v 174.422531 0.648183 -4664.143555
v 521.972229 -0.025927 -4618.962891
v -938.819214 -0.025927 -4637.927734
v -618.494324 -0.025927 -4653.220703
v 16.394520 -0.025927 -4623.228027
v 366.681580 -0.025927 -4648.265137
v 660.297668 -0.025927 -4583.335938
v 815.209778 355.245270 -4585.577148
v 813.688110 -0.025927 -4594.123047
v -539.036499 366.143860 -4711.770996
v -377.699524 604.277222 -4613.298828
v -503.564301 -0.025927 -4805.501953
v -495.300110 -0.025927 -4643.477539
v -444.262268 559.821960 -4688.761719
v -566.549866 592.095703 -4690.325195
v -421.077454 802.006409 -4626.818848
v -276.767395 717.026489 -4615.477539
vt 0.451823 0.879660
vt 0.453798 0.879851
vt 0.581869 0.869726
vt 0.575879 0.869145
vt 0.444176 0.880411
vt 0.361105 0.880561
vt 0.361105 0.880561
vt 0.448922 0.879497
vt 0.361105 0.880561
vt 0.399993 0.889099
vt 0.400216 0.888696
vt 0.484442 0.923272
vt 0.482223 0.927282
vt 0.400698 0.888283
vt 0.401570 0.887303
vt 0.402137 0.886667
vt 0.503555 0.903085
vt 0.497919 0.909419
vt 0.403781 0.885115
vt 0.519913 0.887645
vt 0.446531 0.879476
vt 0.539294 0.870560
vt 0.552684 0.871423
vt 0.567080 0.868652
vt 0.361105 0.880561
vt 0.361105 0.880561
vt 0.361105 0.880561
vt 0.361105 0.880561
vt 0.361105 0.880561
vt 0.497919 0.909419
vt 0.497919 0.909419
vt 0.497919 0.909419
vt 0.361105 0.880561
vt 0.361105 0.880561
vt 0.581869 0.869726
vt 0.575879 0.869145
vt 0.361105 0.880561
vt 0.456665 0.883025
vt 0.361105 0.880561
vt 0.361105 0.880561
vt 0.361105 0.880561
vt 0.361105 0.880561
vt 0.361105 0.880561
vt 0.361105 0.880561
vt 0.361105 0.880560
vt 0.592402 0.880678
vt 0.592402 0.880678
vt 0.590564 0.879352
vt 0.590564 0.879352
vt 0.361105 0.880561
vt 0.361105 0.880561
vt 0.361105 0.880561
vt 0.361105 0.880561
vt 0.361105 0.880561
vt 0.361105 0.880561
vt 0.567080 0.868652
vt 0.361105 0.880561
vt 0.361105 0.880561
vt 0.361105 0.880561
vt 0.552684 0.871423
vt 0.361105 0.880561
vt 0.361105 0.880561
vt 0.361105 0.880561
vt 0.539294 0.870560
vt 0.489243 0.919168
vt 0.489243 0.919168
vt 0.489243 0.919168
vt 0.489243 0.919168
vt 0.390803 0.884832
vt 0.361105 0.880560
vt 0.361105 0.880560
vt 0.519913 0.887645
vt 0.361105 0.880561
vt 0.390803 0.884832
vt 0.390803 0.884832
vt 0.361105 0.880561
vt 0.361105 0.880561
vt 0.390803 0.884832
vt 0.361105 0.880561
vt 0.503555 0.903085
vt 0.390803 0.884832
vt 0.361105 0.880561
vt 0.390803 0.884832
vt 0.484442 0.923272
vt 0.361105 0.880561
vt 0.482223 0.927282
vt 0.400698 0.888283
vt 0.361105 0.880561
vt 0.401570 0.887303
vt 0.390803 0.884832
vt 0.390803 0.884832
vt 0.390803 0.884832
vt 0.390803 0.884832
vt 0.390803 0.884832
vt 0.390803 0.884832
vt 0.390803 0.884832
vt 0.390803 0.884832
vt 0.390803 0.884832
vt 0.390803 0.884832
vt 0.390803 0.884832
vt 0.390803 0.884832
vt 0.361105 0.880561
vt 0.361105 0.880561
vt 0.361105 0.880561
vt 0.361105 0.880561
vt 0.361105 0.880561
vt 0.361105 0.880561
vt 0.361105 0.880561
vt 0.361105 0.880561
vt 0.361105 0.880561
vt 0.390803 0.884832
vt 0.361105 0.880561
vt 0.361105 0.880561
vt 0.361105 0.880561
vt 0.361105 0.880561
vt 0.390803 0.884832
vt 0.390803 0.884832
vn -0.0487 0.3569 0.9329
vn -0.3074 0.1910 0.9322
vn -0.7831 0.1817 0.5947
vn -0.4313 0.4337 0.7912
vn 0.1838 0.5307 0.8274
vn 0.3248 0.3428 0.8815
vn -0.0489 0.4488 0.8923
vn 0.1609 0.2296 0.9599
vn 0.3065 0.1258 0.9435
vn -0.2910 0.1479 0.9452
vn -0.3073 0.2754 0.9109
vn 0.0043 -1.0000 0.0000
vn -0.0505 0.2707 0.9614
vn 0.7451 -0.6670 0.0000
vn 0.1667 0.0242 0.9857
vn -0.0872 0.9962 0.0000
vn -0.0313 0.2575 0.9658
vn 0.0000 -1.0000 0.0000
vn 0.0014 -1.0000 -0.0026
vn 0.8012 0.5984 0.0000
vn 0.0634 0.9980 0.0000
vn -0.1035 0.0833 0.9911
vn 0.3407 0.2378 0.9096
vn -0.7738 0.6334 0.0000
vn 0.1707 0.2441 0.9546
vn -0.5540 0.8325 0.0000
vn -0.0089 0.1585 0.9873
vn -0.2856 0.9584 0.0000
vn -0.2297 0.0276 0.9729
vn -0.9974 0.0695 -0.0189
vn 0.3891 0.9212 0.0000
vn -0.0993 0.3892 0.9158
vn -0.0059 -1.0000 0.0000
vn 0.6899 0.7072 -0.1546
vn 0.2275 0.2505 0.9410
vn 0.5160 0.5739 0.6359
vn -0.2343 0.9722 0.0000
vn 0.9918 0.0227 -0.1258
vn 0.7044 0.7066 0.0677
vn 0.9939 0.1103 0.0000
vn -0.0031 -1.0000 -0.0019
vn -0.9992 0.0391 0.0000
vn -0.5446 0.8387 0.0000
vn 0.5074 0.8617 0.0000
vn -0.2207 0.0184 0.9752
vn -0.8286 0.5598 0.0000
vn -0.3716 0.6610 0.6519
vn 1.0000 -0.0043 0.0000
vn 0.2100 0.5523 0.8068
vn 0.4801 -0.4148 0.7729
vn 0.6565 0.7544 0.0000
vn -0.1797 0.1630 0.9701
vn -0.0405 -0.9992 0.0000
vn 0.7094 -0.1193 0.6946
vn -0.2509 0.8169 0.5194
vn -0.2360 0.1694 0.9569
vn 0.0066 0.2187 -0.9758
vn -0.5216 0.4226 -0.7412
vn -0.1308 0.3583 -0.9244
vn 0.3258 0.2628 -0.9081
vn 0.0301 0.3884 -0.9210
vn 0.0363 0.3906 -0.9198
vn -0.2599 0.4323 -0.8635
vn -0.0551 0.2157 -0.9749
vn -0.0920 0.2127 -0.9728
vn -0.0299 0.2915 -0.9561
vn -0.0135 0.3004 -0.9537
vn -0.0609 0.2640 -0.9626
vn -0.3208 0.2377 -0.9168
vn 0.0362 0.2206 -0.9747
vn -0.0028 -1.0000 0.0031
vn -0.0203 0.3062 -0.9518
vn 0.1020 0.3071 -0.9462
vn 0.1207 0.3800 -0.9171
vn -0.0128 0.2255 -0.9742
vn 0.1215 0.1880 -0.9746
vn 0.2087 0.2220 -0.9524
vn 0.7808 0.6170 -0.0987
vn 0.0546 0.1847 -0.9813
vn 0.9823 0.0065 -0.1870
vn -0.9976 0.0338 -0.0605
vn 0.0023 -1.0000 0.0016
vn 0.0133 0.2683 -0.9632
vn 0.0203 0.0969 -0.9951
vn 0.1484 0.2317 -0.9614
vn 0.7959 -0.3291 -0.5082
vn -0.0892 0.3446 -0.9345
vn 0.7186 -0.6482 -0.2520
vn -0.2727 0.2623 -0.9257
vn -0.9929 -0.0139 0.1180
vn -0.9998 -0.0158 -0.0078
vn -0.9999 -0.0157 0.0000
vn 0.7037 0.7105 0.0000
usemtl MTBG
s off
f 5/1/1 1/2/1 2/3/1 20/4/1
f 7/5/2 27/6/2 23/7/2 6/8/2
f 6/8/3 23/7/3 26/9/3 5/1/3
f 3/10/4 12/11/4 13/12/4 4/13/4
f 13/12/5 12/11/5 11/14/5
f 52/15/6 10/16/6 15/17/6 53/18/6
f 10/16/7 9/19/7 16/20/7 15/17/7
f 9/19/8 8/21/8 17/22/8 16/20/8
f 8/21/9 7/5/9 18/23/9 17/22/9
f 7/5/10 6/8/10 19/24/10 18/23/10
f 6/8/11 5/1/11 20/4/11 19/24/11
f 47/25/12 105/26/12 101/27/12 43/28/12
f 5/1/13 26/9/13 25/29/13 1/2/13
f 53/18/14 111/30/14 117/31/14 59/32/14
f 12/11/15 21/33/15 30/34/15 11/14/15
f 2/3/16 60/35/16 79/36/16 20/4/16
f 25/29/17 33/37/17 31/38/17 1/2/17
f 41/39/18 46/40/18 30/34/18 21/33/18
f 39/41/18 97/42/18 106/43/18 48/44/18
f 47/25/19 43/28/19 27/6/19 28/45/19
f 35/46/20 93/47/20 90/48/20 32/49/20
f 45/50/18 41/39/18 21/33/18 22/51/18
f 55/52/18 42/53/18 29/54/18 54/55/18
f 20/4/21 79/36/21 78/56/21 19/24/21
f 45/50/18 103/57/18 99/58/18 41/39/18
f 48/44/18 44/59/18 25/29/18 26/9/18
f 3/10/22 22/51/22 21/33/22 12/11/22
f 8/21/23 28/45/23 27/6/23 7/5/23
f 19/24/24 78/56/24 77/60/24 18/23/24
f 9/19/25 24/61/25 28/45/25 8/21/25
f 55/52/18 113/62/18 100/63/18 42/53/18
f 18/23/26 77/60/26 76/64/26 17/22/26
f 10/16/27 29/54/27 24/61/27 9/19/27
f 58/65/28 116/66/28 73/67/28 14/68/28
f 52/15/29 54/55/29 29/54/29 10/16/29
f 38/69/30 45/50/30 22/51/30 3/10/30
f 40/70/18 98/71/18 105/26/18 47/25/18
f 17/22/31 76/64/31 75/72/31 16/20/31
f 1/2/32 31/38/32 32/49/32 2/3/32
f 43/28/33 101/27/33 97/42/33 39/41/33
f 44/59/18 49/73/18 33/37/18 25/29/18
f 108/74/34 94/75/34 93/47/34
f 46/40/18 104/76/18 113/62/18 55/52/18
f 33/37/35 37/77/35 34/78/35 31/38/35
f 31/38/36 34/78/36 35/46/36 32/49/36
f 49/73/18 51/79/18 37/77/18 33/37/18
f 16/20/37 75/72/37 74/80/37 15/17/37
f 34/78/38 37/77/38 51/79/38 50/81/38
f 48/44/18 106/43/18 102/82/18 44/59/18
f 34/78/39 50/81/39 35/46/39
f 15/17/40 74/80/40 111/30/40 53/18/40
f 23/7/41 27/6/41 43/28/41 39/41/41
f 24/61/18 40/70/18 47/25/18 28/45/18
f 38/69/42 96/83/42 103/57/42 45/50/42
f 23/7/18 39/41/18 48/44/18 26/9/18
f 14/68/43 73/67/43 72/84/43 13/12/43
f 24/61/18 29/54/18 42/53/18 40/70/18
f 59/32/44 117/31/44 116/66/44 58/65/44
f 44/59/18 102/82/18 107/85/18 49/73/18
f 11/14/45 30/34/45 54/55/45 52/15/45
f 13/12/46 72/84/46 62/86/46 4/13/46
f 46/40/18 55/52/18 54/55/18 30/34/18
f 13/12/47 57/87/47 14/68/47
f 51/79/48 109/88/48 108/74/48 50/81/48
f 57/87/49 56/89/49 59/32/49 58/65/49
f 49/73/18 107/85/18 109/88/18 51/79/18
f 53/18/50 59/32/50 56/89/50
f 32/49/51 90/48/51 60/35/51 2/3/51
f 52/15/52 56/89/52 57/87/52 11/14/52
f 41/39/18 99/58/18 104/76/18 46/40/18
f 50/81/53 36/90/53 94/75/53 108/74/53
f 53/18/54 56/89/54 52/15/54
f 14/68/55 57/87/55 58/65/55
f 42/53/18 100/63/18 98/71/18 40/70/18
f 13/12/56 11/14/56 57/87/56
f 64/91/57 79/36/57 60/35/57 61/92/57
f 63/93/58 62/86/58 72/84/58 71/94/58
f 71/94/59 72/84/59 73/67/59 70/95/59
f 110/96/60 111/30/60 74/80/60 69/97/60
f 69/97/61 74/80/61 75/72/61 68/98/61
f 68/98/62 75/72/62 76/64/62 67/99/62
f 67/99/63 76/64/63 77/60/63 66/100/63
f 66/100/64 77/60/64 78/56/64 65/101/64
f 65/101/65 78/56/65 79/36/65 64/91/65
f 66/100/66 86/102/66 87/103/66 67/99/66
f 65/101/67 82/104/67 86/102/67 66/100/67
f 64/91/68 85/105/68 82/104/68 65/101/68
f 71/94/69 80/106/69 81/107/69 63/93/69
f 61/92/70 84/108/70 85/105/70 64/91/70
f 98/71/18 100/63/18 88/109/18 83/110/18
f 97/42/18 82/104/18 85/105/18 106/43/18
f 98/71/18 83/110/18 87/103/18 105/26/18
f 97/42/71 101/27/71 86/102/71 82/104/71
f 67/99/72 87/103/72 83/110/72 68/98/72
f 68/98/73 83/110/73 88/109/73 69/97/73
f 60/35/74 90/48/74 91/111/74 61/92/74
f 110/96/75 112/112/75 89/113/75 70/95/75
f 70/95/76 89/113/76 80/106/76 71/94/76
f 91/111/77 94/75/77 95/114/77 92/115/77
f 90/48/78 93/47/78 94/75/78 91/111/78
f 61/92/79 91/111/79 92/115/79 84/108/79
f 108/74/80 109/88/80 95/114/80 94/75/80
f 92/115/18 95/114/18 109/88/18 107/85/18
f 84/108/18 92/115/18 107/85/18 102/82/18
f 63/93/81 81/107/81 103/57/81 96/83/81
f 85/105/18 84/108/18 102/82/18 106/43/18
f 112/112/18 88/109/18 100/63/18 113/62/18
f 81/107/18 80/106/18 99/58/18 103/57/18
f 87/103/82 86/102/82 101/27/82 105/26/82
f 80/106/18 89/113/18 104/76/18 99/58/18
f 89/113/18 112/112/18 113/62/18 104/76/18
f 69/97/83 88/109/83 112/112/83 110/96/83
f 70/95/84 115/116/84 114/117/84 110/96/84
f 115/116/85 116/66/85 117/31/85 114/117/85
f 111/30/86 110/96/86 114/117/86
f 73/67/87 116/66/87 115/116/87
f 111/30/88 114/117/88 117/31/88
f 73/67/89 115/116/89 70/95/89
f 3/10/90 4/13/90 38/69/90
f 63/93/91 96/83/91 62/86/91
f 96/83/92 38/69/92 4/13/92 62/86/92
f 35/46/93 50/81/93 108/74/93 93/47/93
