# Blender v2.83.3 OBJ File: '2020-11-13 Background.blend'
# www.blender.org
mtllib Background Row2.mtl
o Row_3_Cube.004
v -923.378235 160.402893 -2447.594482
v -854.449219 280.179047 -2542.635254
v 462.614258 333.439850 -2426.377197
v 450.860321 358.331512 -2523.471680
v -825.194641 107.182892 -2437.281006
v -661.955933 130.897369 -2470.575684
v -563.494507 135.767044 -2496.152100
v -467.638031 24.227129 -2392.792725
v -237.617126 205.401352 -2376.711670
v 4.408316 129.681442 -2432.399902
v 162.408249 284.988373 -2453.599854
v 323.510071 255.421600 -2416.583496
v 366.325073 410.420624 -2521.138916
v 166.460098 295.655762 -2542.716797
v 1.146014 310.948730 -2518.087646
v -223.814804 314.683014 -2500.364258
v -431.081055 216.133118 -2499.314453
v -525.576721 231.726089 -2563.337402
v -650.726624 321.240326 -2543.913818
v -773.074829 336.095947 -2548.039795
v -1014.045776 292.152039 -2430.594727
v -993.976379 458.088654 -2518.405273
v -1193.667236 284.167847 -2407.407715
v -1174.095947 360.485596 -2518.382324
v 942.600159 242.374176 -2412.527832
v -1191.552368 294.241364 -2501.677002
v -854.635925 308.635925 -2639.651123
v -862.134521 96.430550 -2772.246582
v 463.446472 473.906921 -2618.003662
v 427.000244 271.862061 -2706.542480
v -726.177124 128.184494 -2788.595947
v -670.806274 73.067009 -2796.256104
v -522.852600 84.835991 -2807.869385
v -367.660522 105.201141 -2774.969971
v -250.848602 93.844803 -2774.848145
v 4.106733 150.350739 -2790.696045
v 191.446976 136.511169 -2793.126221
v 354.251221 164.342590 -2773.822998
v 354.130524 560.620483 -2618.154785
v 161.662872 354.768738 -2639.732910
v -13.260485 287.286682 -2615.103516
v -233.949127 385.928864 -2597.380371
v -427.883118 324.254486 -2596.330322
v -525.670166 314.171722 -2660.353516
v -640.735657 414.680328 -2640.929932
v -771.898254 289.510620 -2645.055908
v -995.025269 512.938538 -2615.421143
v -1007.845337 282.955902 -2748.667236
v -1174.983398 410.694458 -2615.398438
v -1190.324951 315.067657 -2692.962402
v 956.607605 316.678925 -2509.489746
v -1192.439697 288.848267 -2598.693115
v -814.313232 0.000009 -2415.611572
v -926.176392 0.000009 -2414.434326
v 328.724976 0.000009 -2387.967529
v 160.820847 0.000009 -2427.360107
v -679.423950 0.000009 -2445.458252
v -584.024353 0.000009 -2466.657959
v 476.272583 0.000012 -2394.655762
v -472.781494 0.000009 -2359.524902
v -237.607483 0.000009 -2331.661621
v -4.426716 0.000009 -2387.896484
v -1022.554199 0.000009 -2383.820068
v -1195.958618 0.000009 -2372.329102
v -1185.831421 0.000009 -2510.625244
v 454.341339 0.000010 -2539.148193
v 361.474518 0.000009 -2827.682373
v 418.324341 0.000008 -2778.494385
v -870.998718 0.000009 -2809.190430
v -728.767090 0.000009 -2827.185303
v -669.150269 0.000009 -2837.177490
v -533.524109 0.000009 -2844.756592
v -372.657562 0.000009 -2817.796143
v -243.005707 0.000009 -2821.509766
v -3.922948 0.000009 -2841.111816
v 188.226807 0.000009 -2834.116943
v -1014.335205 0.000009 -2782.661621
v -1177.325684 0.000009 -2745.917480
v -1187.452759 0.000009 -2607.621338
v 440.255524 0.000009 -2634.001953
v -989.223450 -0.000013 -2520.669922
v -993.678406 -0.000013 -2617.479492
v -848.461060 -0.000013 -2540.774658
v -851.109253 -0.000013 -2637.723389
v -786.002197 -0.000013 -2538.985840
v -785.221008 -0.000013 -2636.003662
v -648.291077 -0.000013 -2538.168457
v -651.708496 -0.000013 -2635.066650
v -525.308044 -0.000013 -2558.931641
v -514.365173 -0.000013 -2654.652100
v -432.786987 -0.000013 -2496.133057
v -419.209106 -0.000013 -2591.142334
v -196.458359 -0.000013 -2503.933350
v -199.058640 -0.000013 -2600.884766
v 5.475183 -0.000013 -2518.916748
v 1.000046 -0.000013 -2615.724365
v 186.600693 -0.000013 -2540.742920
v 185.542068 -0.000013 -2637.755127
v 362.355774 -0.000013 -2527.642578
v 365.768005 -0.000013 -2624.541016
v 678.622437 395.723450 -2654.294678
v 669.778137 307.861847 -2555.804688
v 685.209229 -3.836458 -2520.121582
v 1172.359619 310.470032 -2403.064209
v 1174.006836 358.175079 -2501.533203
v 693.950989 548.725037 -2751.041504
v 668.084351 268.963776 -2839.657715
v 678.362061 -2.953153 -2667.723877
v 667.494812 0.000049 -2912.154785
v 674.430786 -0.086560 -2764.552734
v 967.443542 -8.154311 -2372.773193
v 963.548889 519.723694 -2605.864746
v 985.752747 283.126099 -2691.529297
v 981.278442 -1.587958 -2519.448242
v 1003.803711 0.000049 -2762.256104
v 990.452454 0.000053 -2615.581299
v 1189.603027 0.000061 -2366.189453
v 1176.386230 270.320465 -2496.393799
v 1173.939209 312.631683 -2593.414062
v 1172.608643 429.159088 -2598.552246
v 1181.156616 272.592468 -2686.740723
v 1187.893555 0.000056 -2514.113525
v 1185.367798 0.000049 -2759.055176
v 1187.076782 0.000053 -2611.130859
vt 0.025567 0.615615
vt 0.020721 0.637352
vt 0.016695 0.636962
vt 0.025567 0.615615
vt 0.020721 0.637352
vt 0.016695 0.636962
vt 0.009616 0.629601
vt 0.010852 0.630492
vt 0.010852 0.630492
vt 0.009616 0.629601
vt 0.025567 0.615615
vt 0.083662 0.598281
vt 0.082171 0.600976
vt 0.025567 0.615615
vt 0.078945 0.603734
vt 0.025567 0.615615
vt 0.069326 0.614542
vt 0.025567 0.615615
vt 0.058333 0.624919
vt 0.025567 0.615615
vt 0.045308 0.636401
vt 0.025567 0.615615
vt 0.036309 0.635821
vt 0.025567 0.615615
vt 0.026634 0.637683
vt 0.025567 0.615615
vt 0.026634 0.637683
vt 0.036309 0.635821
vt 0.026534 0.679000
vt 0.025567 0.615615
vt 0.026534 0.679000
vt 0.045308 0.636401
vt 0.058333 0.624919
vt 0.069326 0.614542
vt 0.025567 0.615615
vt 0.139280 0.578410
vt 0.078945 0.603734
vt 0.026534 0.679000
vt 0.137430 0.671557
vt 0.137430 0.671557
vt 0.026534 0.679000
vt 0.139280 0.578410
vt 0.082171 0.600976
vt 0.026534 0.679000
vt 0.083662 0.598281
vt 0.137986 0.653853
vt 0.137986 0.653853
vt 0.139280 0.578410
vt 0.138217 0.640334
vt 0.138217 0.640334
vt 0.139280 0.578410
vt 0.138217 0.640334
vt 0.138217 0.640334
vt 0.138217 0.640334
vt 0.138217 0.640334
vt 0.138217 0.640334
vt 0.138217 0.640334
vt 0.138217 0.640334
vt 0.138217 0.640334
vt 0.025567 0.615615
vt 0.137986 0.653853
vt 0.137268 0.695708
vt 0.137268 0.695708
vt 0.137268 0.695708
vt 0.137268 0.695708
vt 0.137268 0.695708
vt 0.137268 0.695708
vt 0.137268 0.695708
vt 0.137268 0.695708
vt 0.137889 0.659454
vt 0.137268 0.695708
vt 0.137268 0.695708
vt 0.083662 0.598281
vt 0.139280 0.578410
vt 0.137889 0.659454
vt 0.026534 0.679000
vt 0.026534 0.679000
vt 0.026534 0.679000
vt 0.026534 0.679000
vt 0.026534 0.679000
vt 0.026534 0.679000
vt 0.026534 0.679000
vt 0.026534 0.679000
vt 0.137986 0.653853
vt 0.137986 0.653853
vt 0.137986 0.653853
vt 0.137986 0.653853
vt 0.137986 0.653853
vt 0.137986 0.653853
vt 0.137986 0.653853
vt 0.137986 0.653853
vt 0.137986 0.653853
vt 0.137986 0.653853
vt 0.137986 0.653853
vt 0.137986 0.653853
vt 0.137986 0.653853
vt 0.137986 0.653853
vt 0.137986 0.653853
vt 0.137986 0.653853
vt 0.137986 0.653853
vt 0.137986 0.653853
vt 0.137986 0.653853
vt 0.137986 0.653853
vt 0.137986 0.653853
vt 0.083662 0.598281
vt 0.137986 0.653853
vt 0.025567 0.615615
vt 0.083662 0.598281
vt 0.137889 0.659454
vt 0.137986 0.653853
vt 0.137430 0.671557
vt 0.026534 0.679000
vt 0.083662 0.598281
vt 0.139280 0.578410
vt 0.137889 0.659454
vt 0.137986 0.653853
vt 0.137430 0.671557
vt 0.026534 0.679000
vt 0.083662 0.598281
vt 0.139280 0.578410
vt 0.025567 0.615615
vt 0.083662 0.598281
vt 0.139280 0.578410
vt 0.139280 0.578410
vn -0.0312 0.5160 0.8560
vn -0.2236 0.9704 -0.0918
vn -0.4377 0.7888 0.4315
vn -0.0510 0.7491 0.6604
vn -0.2750 0.7625 0.5857
vn -0.1838 0.6623 0.7264
vn 0.2211 0.5648 0.7951
vn -0.4056 0.5969 0.6923
vn -0.3146 0.5488 0.7745
vn 0.3168 0.3735 0.8718
vn 0.0816 0.3904 0.9170
vn -0.3967 0.8972 0.1938
vn 0.5645 0.5970 0.5700
vn 0.3448 0.1549 0.9258
vn -0.4055 0.6554 0.6372
vn -0.2764 0.7008 0.6577
vn 0.2346 0.9506 0.2035
vn -0.9666 0.2562 0.0057
vn -0.1219 0.9742 0.1901
vn 0.5610 0.3151 0.7655
vn -0.0165 -0.9999 -0.0014
vn -0.9801 0.1914 0.0532
vn -0.5248 0.5554 0.6451
vn 0.0937 0.1383 0.9859
vn -0.1397 0.6417 0.7541
vn 0.3931 0.5372 0.7462
vn -0.9997 -0.0188 0.0134
vn 0.7984 0.5551 0.2333
vn -0.9894 0.1442 0.0179
vn -0.1137 0.5831 -0.8044
vn 0.2908 0.3464 -0.8919
vn -0.1843 0.4344 -0.8816
vn -0.1527 0.6606 -0.7351
vn 0.0018 0.6354 -0.7721
vn -0.0937 0.5638 -0.8206
vn 0.2246 0.5937 -0.7727
vn 0.0530 0.4659 -0.8832
vn -0.2021 0.4956 -0.8447
vn 0.4711 0.4385 -0.7654
vn -0.2293 0.5429 -0.8079
vn 0.5248 0.1118 0.8438
vn -0.9982 -0.0241 -0.0553
vn -0.0504 0.1855 -0.9813
vn -0.2442 0.1369 -0.9600
vn 0.0480 0.3009 -0.9524
vn 0.0225 0.3027 -0.9528
vn -0.1083 0.3673 -0.9238
vn 0.0056 0.4101 -0.9120
vn -0.1521 0.3220 -0.9344
vn 0.5365 0.2322 -0.8113
vn 0.0333 0.3671 -0.9296
vn -0.0788 0.4443 -0.8924
vn 0.1495 0.3720 -0.9161
vn -0.9986 -0.0083 -0.0529
vn -0.5000 0.3551 -0.7899
vn -0.4634 0.2361 -0.8541
vn 0.1049 0.1647 0.9807
vn 0.2589 0.2430 0.9348
vn -0.2118 0.3197 0.9235
vn -0.5508 0.3799 0.7432
vn 0.0292 0.1028 0.9943
vn -0.2169 0.0971 0.9714
vn 0.0083 0.2010 0.9796
vn 0.1896 0.1843 0.9644
vn 0.2275 0.1642 0.9598
vn -0.0000 -1.0000 0.0000
vn 0.2638 0.8374 0.4788
vn -0.0143 -0.9998 -0.0136
vn -0.1246 0.7707 0.6249
vn 0.0003 -1.0000 -0.0003
vn 0.0076 -0.9997 -0.0251
vn 0.4340 0.2853 -0.8545
vn -0.4536 0.0865 0.8870
vn 0.0133 -0.9997 -0.0227
vn 0.3238 0.5263 0.7862
vn -0.0003 -1.0000 -0.0003
vn 0.0233 -0.9995 -0.0213
vn 0.1294 0.4095 -0.9031
vn -0.0572 0.1309 0.9897
vn 0.0041 -1.0000 -0.0080
vn 0.0370 0.5757 0.8168
vn 0.3980 0.2421 -0.8849
vn -0.3411 0.4646 0.8172
vn 0.9991 0.0289 0.0307
vn 0.9995 0.0268 0.0184
vn 0.9991 0.0427 -0.0075
vn 0.9988 0.0495 0.0014
vn 0.9998 0.0177 -0.0095
vn 0.9974 0.0145 0.0709
vn -0.2242 0.8346 0.5031
vn 0.0275 0.2502 -0.9678
usemtl MTBG
s off
f 5/1/1 20/2/1 2/3/1 1/4/1
f 2/3/2 20/2/2 46/5/2 27/6/2
f 24/7/3 22/8/3 47/9/3 49/10/3
f 3/11/4 4/12/4 13/13/4 12/14/4
f 12/14/5 13/13/5 14/15/5 11/16/5
f 11/16/6 14/15/6 15/17/6 10/18/6
f 10/18/7 15/17/7 16/19/7 9/20/7
f 9/20/8 16/19/8 17/21/8 8/22/8
f 8/22/9 17/21/9 18/23/9 7/24/9
f 7/24/10 18/23/10 19/25/10 6/26/10
f 6/26/11 19/25/11 20/2/11 5/1/11
f 20/2/12 19/25/12 45/27/12 46/5/12
f 19/25/13 18/23/13 44/28/13 45/27/13
f 54/29/14 1/4/14 21/30/14 63/31/14
f 18/23/15 17/21/15 43/32/15 44/28/15
f 17/21/16 16/19/16 42/33/16 43/32/16
f 16/19/17 15/17/17 41/34/17 42/33/17
f 23/35/18 24/7/18 26/36/18
f 15/17/19 14/15/19 40/37/19 41/34/19
f 1/4/20 2/3/20 22/8/20 21/30/20
f 59/38/21 66/39/21 108/40/21 103/41/21
f 24/7/22 49/10/22 52/42/22 26/36/22
f 14/15/23 13/13/23 39/43/23 40/37/23
f 63/31/24 21/30/24 23/35/24 64/44/24
f 21/30/25 22/8/25 24/7/25 23/35/25
f 13/13/26 4/12/26 29/45/26 39/43/26
f 65/46/27 26/36/27 52/42/27 79/47/27
f 22/8/28 2/3/28 27/6/28 47/9/28
f 52/42/29 49/10/29 50/48/29
f 31/49/30 28/50/30 27/6/30 46/5/30
f 30/51/31 38/52/31 39/43/31 29/45/31
f 38/52/32 37/53/32 40/37/32 39/43/32
f 37/53/33 36/54/33 41/34/33 40/37/33
f 36/54/34 35/55/34 42/33/34 41/34/34
f 35/55/35 34/56/35 43/32/35 42/33/35
f 34/56/36 33/57/36 44/28/36 43/32/36
f 33/57/37 32/58/37 45/27/37 44/28/37
f 32/58/38 31/49/38 46/5/38 45/27/38
f 27/6/39 28/50/39 48/59/39 47/9/39
f 47/9/40 48/59/40 50/48/40 49/10/40
f 3/11/41 59/38/41 103/41/41 102/60/41
f 52/42/42 50/48/42 78/61/42 79/47/42
f 28/50/43 69/62/43 77/63/43 48/59/43
f 48/59/44 77/63/44 78/61/44 50/48/44
f 37/53/45 38/52/45 67/64/45 76/65/45
f 36/54/46 37/53/46 76/65/46 75/66/46
f 35/55/47 36/54/47 75/66/47 74/67/47
f 34/56/48 35/55/48 74/67/48 73/68/48
f 28/50/49 31/49/49 70/69/49 69/62/49
f 38/52/50 30/51/50 68/70/50 67/64/50
f 31/49/51 32/58/51 71/71/51 70/69/51
f 32/58/52 33/57/52 72/72/52 71/71/52
f 33/57/53 34/56/53 73/68/53 72/72/53
f 23/35/54 26/36/54 65/46/54 64/44/54
f 30/51/55 29/45/55 106/73/55 107/74/55
f 68/70/56 30/51/56 107/74/56 109/75/56
f 11/16/57 10/18/57 62/76/57 56/77/57
f 10/18/58 9/20/58 61/78/58 62/76/58
f 9/20/59 8/22/59 60/79/59 61/78/59
f 8/22/60 7/24/60 58/80/60 60/79/60
f 3/11/61 12/14/61 55/81/61 59/38/61
f 12/14/62 11/16/62 56/77/62 55/81/62
f 5/1/63 1/4/63 54/29/63 53/82/63
f 6/26/64 5/1/64 53/82/64 57/83/64
f 7/24/65 6/26/65 57/83/65 58/80/65
f 65/46/66 79/47/66 82/84/66 81/85/66
f 81/85/66 82/84/66 84/86/66 83/87/66
f 83/87/66 84/86/66 86/88/66 85/89/66
f 85/89/66 86/88/66 88/90/66 87/91/66
f 87/91/66 88/90/66 90/92/66 89/93/66
f 89/93/66 90/92/66 92/94/66 91/95/66
f 91/95/66 92/94/66 94/96/66 93/97/66
f 93/97/66 94/96/66 96/98/66 95/99/66
f 95/99/66 96/98/66 98/100/66 97/101/66
f 97/101/66 98/100/66 100/102/66 99/103/66
f 80/104/66 66/39/66 99/103/66 100/102/66
f 66/39/66 59/38/66 55/81/66 99/103/66
f 56/77/66 97/101/66 99/103/66 55/81/66
f 62/76/66 95/99/66 97/101/66 56/77/66
f 61/78/66 93/97/66 95/99/66 62/76/66
f 60/79/66 91/95/66 93/97/66 61/78/66
f 58/80/66 89/93/66 91/95/66 60/79/66
f 57/83/66 87/91/66 89/93/66 58/80/66
f 53/82/66 85/89/66 87/91/66 57/83/66
f 54/29/66 83/87/66 85/89/66 53/82/66
f 63/31/66 81/85/66 83/87/66 54/29/66
f 65/46/66 81/85/66 63/31/66 64/44/66
f 79/47/66 78/61/66 77/63/66 82/84/66
f 69/62/66 84/86/66 82/84/66 77/63/66
f 70/69/66 86/88/66 84/86/66 69/62/66
f 71/71/66 88/90/66 86/88/66 70/69/66
f 72/72/66 90/92/66 88/90/66 71/71/66
f 73/68/66 92/94/66 90/92/66 72/72/66
f 74/67/66 94/96/66 92/94/66 73/68/66
f 75/66/66 96/98/66 94/96/66 74/67/66
f 76/65/66 98/100/66 96/98/66 75/66/66
f 67/64/66 100/102/66 98/100/66 76/65/66
f 80/104/66 100/102/66 67/64/66 68/70/66
f 4/12/67 3/11/67 102/60/67 101/105/67
f 66/39/68 80/104/68 110/106/68 108/40/68
f 101/105/69 102/60/69 25/107/69 51/108/69
f 110/106/70 109/75/70 115/109/70 116/110/70
f 103/41/71 108/40/71 114/111/71 111/112/71
f 107/74/72 106/73/72 112/113/72 113/114/72
f 102/60/73 103/41/73 111/112/73 25/107/73
f 108/40/74 110/106/74 116/110/74 114/111/74
f 29/45/75 4/12/75 101/105/75 106/73/75
f 80/104/76 68/70/76 109/75/76 110/106/76
f 116/110/66 115/109/66 123/115/66 124/116/66
f 111/112/77 114/111/77 122/117/77 117/118/77
f 113/114/78 112/113/78 120/119/78 121/120/78
f 25/107/79 111/112/79 117/118/79 104/121/79
f 114/111/80 116/110/80 124/116/80 122/117/80
f 112/113/81 51/108/81 105/122/81 120/119/81
f 109/75/82 107/74/82 113/114/82 115/109/82
f 106/73/83 101/105/83 51/108/83 112/113/83
f 104/121/84 118/123/84 105/122/84
f 121/120/85 119/124/85 124/116/85 123/115/85
f 118/123/86 122/117/86 124/116/86 119/124/86
f 118/123/87 104/121/87 117/118/87 122/117/87
f 105/122/88 118/123/88 119/124/88 120/119/88
f 121/120/89 120/119/89 119/124/89
f 51/108/90 25/107/90 104/121/90 105/122/90
f 115/109/91 113/114/91 121/120/91 123/115/91
