# Blender v2.91.0 OBJ File: '2021-01-14 GameObjects.blend'
# www.blender.org
mtllib 2021-01-14 FlagPole.mtl
o Flag_Pole_Cube
v 0.060000 -0.000000 -0.060000
v 0.060000 -0.000000 0.060000
v -0.060000 3.591023 -0.060000
v -0.060000 -0.000000 -0.060000
v -0.060000 3.591023 0.060000
v -0.060000 -0.000000 0.060000
v 0.060000 3.591023 -0.060000
v 0.060000 3.591023 0.060000
v 0.060000 0.211417 -0.060000
v 0.060000 0.211417 0.060000
v -0.060000 0.211417 -0.060000
v -0.060000 0.211417 0.060000
v -0.060000 1.024159 0.060000
v 0.060000 1.024158 -0.060000
v 0.060000 1.024158 0.060000
v -0.060000 1.024158 -0.060000
v -0.060000 1.239168 0.060000
v 0.060000 1.239168 -0.060000
v 0.060000 1.239168 0.060000
v -0.060000 1.239168 -0.060000
v -0.085030 0.000000 -0.085030
v -0.085030 0.000000 0.085030
v 0.085030 0.000000 -0.085030
v 0.085030 0.183052 -0.085030
v 0.085030 0.183052 0.085030
v 0.085030 0.000000 0.085030
v -0.085030 0.183052 -0.085030
v -0.085030 0.183052 0.085030
v 0.085030 1.212673 -0.085030
v 0.085030 1.050653 -0.085030
v 0.085030 1.212673 0.085030
v 0.085030 1.050653 0.085030
v -0.085030 1.212673 -0.085030
v -0.085030 1.050653 -0.085030
v -0.085030 1.050654 0.085030
v -0.085030 1.212673 0.085030
v 0.085568 3.591022 0.085568
v -0.085568 3.591022 0.085568
v 0.085568 3.591022 -0.085568
v -0.085568 3.591022 -0.085568
v 0.027134 3.760419 0.027134
v -0.027134 3.760419 0.027134
v 0.027134 3.760419 -0.027134
v -0.027134 3.760419 -0.027134
v 0.057131 3.745879 0.057131
v -0.057131 3.745879 0.057131
v 0.057131 3.745879 -0.057131
v -0.057131 3.745879 -0.057131
v 0.027134 3.794489 0.027134
v -0.027134 3.794489 0.027134
v 0.027134 3.794489 -0.027134
v -0.027134 3.794489 -0.027134
v 0.048591 3.809030 0.048591
v -0.048591 3.809030 0.048591
v 0.048591 3.809030 -0.048591
v -0.048591 3.809030 -0.048591
v 0.013156 3.905129 0.013156
v -0.013156 3.905129 0.013156
v 0.013156 3.905129 -0.013156
v -0.013156 3.905129 -0.013156
vt 0.148108 0.962627
vt 0.148108 0.962627
vt 0.148108 0.962627
vt 0.148108 0.962627
vt 0.148108 0.962627
vt 0.148108 0.962627
vt 0.148108 0.962627
vt 0.148108 0.962627
vt 0.103199 0.834666
vt 0.103199 0.834666
vt 0.103199 0.834666
vt 0.103199 0.834666
vt 0.103199 0.834666
vt 0.103199 0.834666
vt 0.103199 0.834666
vt 0.103199 0.834666
vt 0.148108 0.962627
vt 0.148108 0.962627
vt 0.148108 0.962627
vt 0.148108 0.962627
vt 0.148108 0.962627
vt 0.148108 0.962627
vt 0.148108 0.962627
vt 0.148108 0.962627
vt 0.148108 0.962627
vt 0.148108 0.962627
vt 0.148108 0.962627
vt 0.148108 0.962627
vt 0.148108 0.962627
vt 0.148108 0.962627
vt 0.103199 0.834666
vt 0.103199 0.834666
vt 0.103199 0.834666
vt 0.103199 0.834666
vt 0.103199 0.834666
vt 0.103199 0.834666
vt 0.103199 0.834666
vt 0.103199 0.834666
vt 0.148108 0.962627
vt 0.148108 0.962627
vt 0.148108 0.962627
vt 0.148108 0.962627
vt 0.148108 0.962627
vt 0.148108 0.962627
vt 0.148108 0.962627
vt 0.148108 0.962627
vt 0.148108 0.962627
vt 0.148108 0.962627
vt 0.148108 0.962627
vt 0.148108 0.962627
vt 0.148108 0.962627
vt 0.148108 0.962627
vt 0.148108 0.962627
vt 0.148108 0.962627
vt 0.148108 0.962627
vt 0.148108 0.962627
vt 0.148108 0.962627
vt 0.148108 0.962627
vt 0.148108 0.962627
vt 0.148108 0.962627
vt 0.148108 0.962627
vt 0.148108 0.962627
vt 0.148108 0.962627
vt 0.148108 0.962627
vt 0.148108 0.962627
vt 0.148108 0.962627
vt 0.148108 0.962627
vt 0.148108 0.962627
vt 0.148108 0.962627
vt 0.148108 0.962627
vt 0.148108 0.962627
vt 0.148108 0.962627
vt 0.148108 0.962627
vt 0.148108 0.962627
vt 0.148108 0.962627
vt 0.148108 0.962627
vn 0.0000 -1.0000 0.0000
vn 1.0000 0.0000 0.0000
vn -1.0000 0.0000 0.0000
vn -0.0000 0.0000 1.0000
vn 0.0000 0.6617 0.7498
vn 0.0000 0.6867 -0.7269
vn 0.0000 -0.6867 -0.7269
vn 0.0000 0.0000 -1.0000
vn 0.7269 0.6867 0.0000
vn 0.0000 0.6617 -0.7498
vn 0.7269 -0.6867 0.0000
vn -0.7269 0.6867 -0.0000
vn -0.0000 -0.6867 0.7269
vn -0.7498 0.6617 0.0000
vn 0.0000 0.6867 0.7269
vn -0.7269 -0.6867 0.0000
vn 0.7498 0.6617 0.0000
vn 0.9836 0.1806 0.0000
vn -0.9836 0.1806 0.0000
vn 0.0000 0.1806 0.9836
vn 0.0000 0.1806 -0.9836
vn 0.0000 0.8999 0.4362
vn 0.4362 0.8999 0.0000
vn -0.4362 0.8999 0.0000
vn 0.0000 0.8999 -0.4362
vn -0.5610 -0.8278 0.0000
vn -0.9382 0.3460 0.0000
vn 0.0000 -0.8278 0.5610
vn 0.0000 -0.8278 -0.5610
vn 0.5610 -0.8278 0.0000
vn 0.0000 1.0000 0.0000
vn 0.0000 0.3460 0.9382
vn 0.0000 0.3460 -0.9382
vn 0.9382 0.3460 0.0000
usemtl Colors
s off
f 3/1/1 5/2/1 38/3/1 40/4/1
f 4/5/1 1/6/1 2/7/1 6/8/1
f 8/9/2 19/10/2 18/11/2 7/12/2
f 17/13/3 5/14/3 3/15/3 20/16/3
f 8/9/4 5/14/4 17/13/4 19/10/4
f 10/17/5 12/18/5 28/19/5 25/20/5
f 2/7/1 1/6/1 23/21/1 26/22/1
f 20/23/6 18/24/6 29/25/6 33/26/6
f 14/27/7 16/28/7 34/29/7 30/30/7
f 10/31/4 15/32/4 13/33/4 12/34/4
f 12/34/3 13/33/3 16/35/3 11/36/3
f 9/37/2 14/38/2 15/32/2 10/31/2
f 11/36/8 16/35/8 14/38/8 9/37/8
f 18/24/9 19/39/9 31/40/9 29/25/9
f 11/41/10 9/42/10 24/43/10 27/44/10
f 15/45/11 14/27/11 30/30/11 32/46/11
f 17/47/12 20/23/12 33/26/12 36/48/12
f 26/22/4 25/20/4 28/19/4 22/49/4
f 22/49/3 28/19/3 27/44/3 21/50/3
f 23/21/2 24/43/2 25/20/2 26/22/2
f 21/50/8 27/44/8 24/43/8 23/21/8
f 32/46/4 31/40/4 36/48/4 35/51/4
f 35/51/3 36/48/3 33/26/3 34/29/3
f 30/30/2 29/25/2 31/40/2 32/46/2
f 34/29/8 33/26/8 29/25/8 30/30/8
f 13/52/13 15/45/13 32/46/13 35/51/13
f 4/5/1 6/8/1 22/49/1 21/50/1
f 12/18/14 11/41/14 27/44/14 28/19/14
f 19/39/15 17/47/15 36/48/15 31/40/15
f 6/8/1 2/7/1 26/22/1 22/49/1
f 16/28/16 13/52/16 35/51/16 34/29/16
f 1/6/1 4/5/1 21/50/1 23/21/1
f 9/42/17 10/17/17 25/20/17 24/43/17
f 37/53/18 39/54/18 47/55/18 45/56/18
f 8/57/1 7/58/1 39/54/1 37/53/1
f 7/58/1 3/1/1 40/4/1 39/54/1
f 5/2/1 8/57/1 37/53/1 38/3/1
f 43/59/8 44/60/8 52/61/8 51/62/8
f 40/4/19 38/3/19 46/63/19 48/64/19
f 38/3/20 37/53/20 45/56/20 46/63/20
f 39/54/21 40/4/21 48/64/21 47/55/21
f 41/65/22 42/66/22 46/63/22 45/56/22
f 43/59/23 41/65/23 45/56/23 47/55/23
f 42/66/24 44/60/24 48/64/24 46/63/24
f 44/60/25 43/59/25 47/55/25 48/64/25
f 52/61/26 50/67/26 54/68/26 56/69/26
f 41/65/2 43/59/2 51/62/2 49/70/2
f 44/60/3 42/66/3 50/67/3 52/61/3
f 42/66/4 41/65/4 49/70/4 50/67/4
f 56/69/27 54/68/27 58/71/27 60/72/27
f 50/67/28 49/70/28 53/73/28 54/68/28
f 51/62/29 52/61/29 56/69/29 55/74/29
f 49/70/30 51/62/30 55/74/30 53/73/30
f 59/75/31 60/72/31 58/71/31 57/76/31
f 54/68/32 53/73/32 57/76/32 58/71/32
f 55/74/33 56/69/33 60/72/33 59/75/33
f 53/73/34 55/74/34 59/75/34 57/76/34
f 3/15/8 7/12/8 18/11/8 20/16/8
